G04 Layer_Physical_Order=1*
G04 Layer_Color=255*
%FSLAX25Y25*%
%MOIN*%
G70*
G01*
G75*
%ADD10R,0.04724X0.06693*%
%ADD11O,0.04724X0.06693*%
%ADD12O,0.06693X0.04724*%
%ADD13R,0.06693X0.04724*%
%ADD14C,0.05512*%
%ADD15C,0.06299*%
%ADD16C,0.07874*%
%ADD17R,0.07874X0.07874*%
%ADD18C,0.14961*%
%ADD19R,0.06299X0.06299*%
D10*
X151768Y36894D02*
D03*
D11*
X161768D02*
D03*
X171768D02*
D03*
X181768D02*
D03*
X151768Y66894D02*
D03*
X161768D02*
D03*
X181768D02*
D03*
D12*
X225118Y28898D02*
D03*
Y18898D02*
D03*
X255118Y28898D02*
D03*
D13*
Y18898D02*
D03*
D14*
X305894Y106394D02*
D03*
X313768D02*
D03*
D15*
X290768Y76894D02*
D03*
X304547D02*
D03*
X91339Y100000D02*
D03*
Y80315D02*
D03*
X135768Y117579D02*
D03*
Y97894D02*
D03*
X132382Y41240D02*
D03*
Y60925D02*
D03*
X325197Y37402D02*
D03*
Y17717D02*
D03*
X341339Y37402D02*
D03*
Y17717D02*
D03*
X106988Y51968D02*
D03*
X91240D02*
D03*
X107087Y129528D02*
D03*
X91339D02*
D03*
X62953Y34894D02*
D03*
X43268D02*
D03*
X64665Y78051D02*
D03*
X31201D02*
D03*
Y63386D02*
D03*
X64665D02*
D03*
Y93405D02*
D03*
X31201D02*
D03*
Y109350D02*
D03*
X64665D02*
D03*
X181768Y117205D02*
D03*
Y83740D02*
D03*
X317232Y51394D02*
D03*
X283768D02*
D03*
X165748Y84252D02*
D03*
Y117717D02*
D03*
X328268Y92142D02*
D03*
Y76394D02*
D03*
X18768Y34894D02*
D03*
Y125894D02*
D03*
X354724Y106299D02*
D03*
Y134252D02*
D03*
X356299Y16535D02*
D03*
Y27559D02*
D03*
X220866Y126378D02*
D03*
X258268Y138976D02*
D03*
X110925Y29429D02*
D03*
X91240D02*
D03*
X283858Y11417D02*
D03*
Y31102D02*
D03*
X298425Y11417D02*
D03*
Y31102D02*
D03*
X269291Y11417D02*
D03*
Y31102D02*
D03*
X348425Y80315D02*
D03*
Y60630D02*
D03*
X362598D02*
D03*
Y80315D02*
D03*
X196457Y25591D02*
D03*
Y59055D02*
D03*
X196358Y67913D02*
D03*
Y101378D02*
D03*
D16*
X210728Y111276D02*
D03*
Y96315D02*
D03*
Y81354D02*
D03*
Y66394D02*
D03*
X270768Y111276D02*
D03*
Y96315D02*
D03*
Y81354D02*
D03*
Y66394D02*
D03*
Y51433D02*
D03*
D17*
X210728D02*
D03*
D18*
X46457Y11417D02*
D03*
X48425Y134646D02*
D03*
X167323Y11417D02*
D03*
X287795Y134646D02*
D03*
D19*
X356299Y38583D02*
D03*
M02*
