G04 Layer_Color=65535*
%FSLAX25Y25*%
%MOIN*%
G70*
G01*
G75*
%ADD24C,0.00787*%
%ADD25C,0.01968*%
%ADD26C,0.01000*%
%ADD27R,0.03937X0.10630*%
%ADD28R,0.10630X0.03937*%
D24*
X143500Y49394D02*
X144457Y49584D01*
X145268Y50126D01*
X145810Y50937D01*
X146000Y51894D01*
X145810Y52850D01*
X145268Y53662D01*
X144457Y54203D01*
X143500Y54394D01*
X319673Y106394D02*
X319623Y107389D01*
X319472Y108375D01*
X319222Y109340D01*
X318876Y110275D01*
X318437Y111170D01*
X317909Y112016D01*
X317299Y112805D01*
X316612Y113528D01*
X315855Y114177D01*
X315037Y114746D01*
X314165Y115230D01*
X313249Y115623D01*
X312298Y115922D01*
X311321Y116123D01*
X310329Y116224D01*
X309332D01*
X308340Y116123D01*
X307364Y115922D01*
X306412Y115624D01*
X305496Y115230D01*
X304624Y114746D01*
X303806Y114177D01*
X303049Y113528D01*
X302363Y112805D01*
X301752Y112016D01*
X301225Y111170D01*
X300786Y110275D01*
X300440Y109340D01*
X300190Y108375D01*
X300039Y107389D01*
X299988Y106394D01*
X300039Y105398D01*
X300190Y104412D01*
X300440Y103447D01*
X300786Y102512D01*
X301225Y101617D01*
X301752Y100771D01*
X302363Y99983D01*
X303049Y99260D01*
X303806Y98611D01*
X304624Y98041D01*
X305496Y97557D01*
X306412Y97164D01*
X307364Y96865D01*
X308340Y96665D01*
X309332Y96564D01*
X310329D01*
X311321Y96665D01*
X312298Y96865D01*
X313249Y97164D01*
X314165Y97557D01*
X315037Y98041D01*
X315855Y98611D01*
X316612Y99260D01*
X317299Y99983D01*
X317909Y100771D01*
X318437Y101617D01*
X318876Y102512D01*
X319222Y103447D01*
X319472Y104412D01*
X319623Y105398D01*
X319673Y106394D01*
X313405Y76894D02*
X313374Y77893D01*
X313279Y78887D01*
X313121Y79874D01*
X312901Y80849D01*
X312619Y81808D01*
X312277Y82747D01*
X311877Y83662D01*
X311419Y84550D01*
X310906Y85408D01*
X310339Y86231D01*
X309721Y87016D01*
X309055Y87761D01*
X308343Y88462D01*
X307587Y89117D01*
X306792Y89722D01*
X305960Y90275D01*
X305095Y90775D01*
X304199Y91219D01*
X303278Y91605D01*
X302333Y91931D01*
X301370Y92198D01*
X300392Y92402D01*
X299403Y92545D01*
X298407Y92624D01*
X297408Y92640D01*
X296410Y92592D01*
X295416Y92481D01*
X294432Y92308D01*
X293461Y92072D01*
X292507Y91776D01*
X291573Y91419D01*
X290664Y91004D01*
X289784Y90532D01*
X288934Y90005D01*
X288120Y89425D01*
X287345Y88795D01*
X286611Y88117D01*
X285921Y87394D01*
X285279Y86629D01*
X284686Y85824D01*
X284146Y84983D01*
X283660Y84110D01*
X283231Y83208D01*
X282859Y82280D01*
X282547Y81330D01*
X282296Y80363D01*
X282107Y79382D01*
X281981Y78391D01*
X281917Y77393D01*
Y76394D01*
X281981Y75397D01*
X282107Y74405D01*
X282296Y73424D01*
X282547Y72457D01*
X282859Y71508D01*
X283231Y70580D01*
X283660Y69678D01*
X284146Y68804D01*
X284686Y67964D01*
X285279Y67159D01*
X285921Y66393D01*
X286611Y65670D01*
X287345Y64992D01*
X288120Y64362D01*
X288934Y63782D01*
X289784Y63256D01*
X290664Y62784D01*
X291573Y62368D01*
X292507Y62012D01*
X293461Y61715D01*
X294432Y61480D01*
X295416Y61306D01*
X296410Y61195D01*
X297408Y61148D01*
X298407Y61164D01*
X299403Y61243D01*
X300392Y61385D01*
X301370Y61590D01*
X302333Y61856D01*
X303278Y62183D01*
X304199Y62569D01*
X305095Y63012D01*
X305960Y63512D01*
X306792Y64066D01*
X307587Y64671D01*
X308343Y65325D01*
X309055Y66026D01*
X309721Y66771D01*
X310339Y67557D01*
X310906Y68380D01*
X311419Y69237D01*
X311877Y70125D01*
X312277Y71041D01*
X312619Y71980D01*
X312901Y72939D01*
X313121Y73913D01*
X313279Y74900D01*
X313374Y75895D01*
X313405Y76894D01*
X111024Y90158D02*
X110998Y91154D01*
X110923Y92149D01*
X110797Y93138D01*
X110621Y94120D01*
X110395Y95092D01*
X110121Y96051D01*
X109798Y96994D01*
X109428Y97920D01*
X109012Y98827D01*
X108550Y99711D01*
X108044Y100570D01*
X107495Y101403D01*
X106905Y102207D01*
X106275Y102980D01*
X105606Y103720D01*
X104901Y104425D01*
X104161Y105094D01*
X103388Y105724D01*
X102584Y106314D01*
X101751Y106863D01*
X100892Y107369D01*
X100008Y107831D01*
X99102Y108247D01*
X98175Y108617D01*
X97232Y108940D01*
X96273Y109214D01*
X95301Y109440D01*
X94319Y109616D01*
X93330Y109741D01*
X92336Y109817D01*
X91339Y109843D01*
X90342Y109817D01*
X89347Y109741D01*
X88358Y109616D01*
X87376Y109440D01*
X86405Y109214D01*
X85446Y108940D01*
X84502Y108617D01*
X83576Y108247D01*
X82669Y107831D01*
X81785Y107369D01*
X80926Y106863D01*
X80093Y106314D01*
X79289Y105724D01*
X78516Y105094D01*
X77776Y104425D01*
X77071Y103720D01*
X76402Y102980D01*
X75772Y102207D01*
X75182Y101403D01*
X74633Y100570D01*
X74127Y99711D01*
X73665Y98827D01*
X73249Y97920D01*
X72879Y96994D01*
X72556Y96050D01*
X72282Y95091D01*
X72057Y94120D01*
X71881Y93138D01*
X71754Y92149D01*
X71679Y91154D01*
X71653Y90157D01*
X71679Y89160D01*
X71754Y88166D01*
X71881Y87177D01*
X72057Y86195D01*
X72282Y85223D01*
X72556Y84264D01*
X72879Y83321D01*
X73249Y82394D01*
X73665Y81488D01*
X74127Y80604D01*
X74633Y79745D01*
X75182Y78912D01*
X75772Y78108D01*
X76402Y77335D01*
X77071Y76595D01*
X77776Y75890D01*
X78516Y75221D01*
X79289Y74591D01*
X80093Y74001D01*
X80926Y73452D01*
X81786Y72946D01*
X82670Y72484D01*
X83576Y72068D01*
X84502Y71698D01*
X85446Y71375D01*
X86405Y71101D01*
X87376Y70875D01*
X88358Y70699D01*
X89347Y70573D01*
X90342Y70498D01*
X91339Y70472D01*
X92336Y70498D01*
X93330Y70573D01*
X94319Y70700D01*
X95301Y70875D01*
X96273Y71101D01*
X97232Y71375D01*
X98175Y71698D01*
X99102Y72068D01*
X100008Y72484D01*
X100892Y72946D01*
X101751Y73452D01*
X102584Y74001D01*
X103388Y74591D01*
X104161Y75221D01*
X104901Y75890D01*
X105606Y76595D01*
X106275Y77335D01*
X106905Y78108D01*
X107495Y78912D01*
X108044Y79745D01*
X108550Y80604D01*
X109012Y81488D01*
X109428Y82395D01*
X109798Y83321D01*
X110121Y84265D01*
X110395Y85224D01*
X110621Y86195D01*
X110797Y87177D01*
X110923Y88166D01*
X110998Y89161D01*
X111024Y90158D01*
X155453Y107736D02*
X155428Y108733D01*
X155352Y109728D01*
X155226Y110717D01*
X155050Y111699D01*
X154824Y112670D01*
X154550Y113629D01*
X154227Y114573D01*
X153857Y115499D01*
X153441Y116405D01*
X152979Y117289D01*
X152473Y118149D01*
X151925Y118982D01*
X151334Y119785D01*
X150704Y120559D01*
X150035Y121299D01*
X149330Y122004D01*
X148590Y122672D01*
X147817Y123303D01*
X147013Y123893D01*
X146180Y124442D01*
X145321Y124948D01*
X144437Y125409D01*
X143531Y125826D01*
X142604Y126196D01*
X141661Y126518D01*
X140702Y126793D01*
X139730Y127018D01*
X138749Y127194D01*
X137759Y127320D01*
X136765Y127396D01*
X135768Y127421D01*
X134771Y127396D01*
X133776Y127320D01*
X132787Y127194D01*
X131805Y127018D01*
X130834Y126793D01*
X129875Y126518D01*
X128931Y126196D01*
X128005Y125826D01*
X127099Y125409D01*
X126215Y124948D01*
X125355Y124442D01*
X124522Y123893D01*
X123718Y123303D01*
X122945Y122672D01*
X122205Y122004D01*
X121500Y121299D01*
X120832Y120559D01*
X120201Y119785D01*
X119611Y118982D01*
X119062Y118149D01*
X118556Y117289D01*
X118094Y116405D01*
X117678Y115499D01*
X117308Y114573D01*
X116985Y113629D01*
X116711Y112670D01*
X116486Y111699D01*
X116310Y110717D01*
X116184Y109728D01*
X116108Y108733D01*
X116083Y107736D01*
X116108Y106739D01*
X116184Y105745D01*
X116310Y104755D01*
X116486Y103774D01*
X116711Y102802D01*
X116985Y101843D01*
X117308Y100900D01*
X117678Y99973D01*
X118094Y99067D01*
X118556Y98183D01*
X119062Y97324D01*
X119611Y96491D01*
X120201Y95687D01*
X120832Y94914D01*
X121500Y94174D01*
X122205Y93469D01*
X122945Y92800D01*
X123718Y92170D01*
X124522Y91579D01*
X125355Y91031D01*
X126215Y90525D01*
X127099Y90063D01*
X128005Y89647D01*
X128931Y89276D01*
X129875Y88954D01*
X130834Y88680D01*
X131805Y88454D01*
X132787Y88278D01*
X133776Y88152D01*
X134771Y88076D01*
X135768Y88051D01*
X136765Y88076D01*
X137759Y88152D01*
X138749Y88278D01*
X139730Y88454D01*
X140702Y88680D01*
X141661Y88954D01*
X142604Y89277D01*
X143531Y89647D01*
X144437Y90063D01*
X145321Y90525D01*
X146180Y91031D01*
X147013Y91580D01*
X147817Y92170D01*
X148590Y92800D01*
X149330Y93469D01*
X150035Y94174D01*
X150704Y94914D01*
X151334Y95687D01*
X151925Y96491D01*
X152473Y97324D01*
X152979Y98183D01*
X153441Y99067D01*
X153858Y99973D01*
X154227Y100900D01*
X154550Y101843D01*
X154824Y102802D01*
X155050Y103774D01*
X155226Y104755D01*
X155352Y105745D01*
X155428Y106739D01*
X155453Y107736D01*
X112894Y51968D02*
X112858Y52963D01*
X112750Y53952D01*
X112572Y54931D01*
X112323Y55894D01*
X112005Y56837D01*
X111620Y57754D01*
X111170Y58642D01*
X110657Y59494D01*
X110084Y60308D01*
X109454Y61077D01*
X108769Y61800D01*
X108035Y62471D01*
X107254Y63087D01*
X106430Y63645D01*
X105569Y64143D01*
X104673Y64577D01*
X103749Y64945D01*
X102801Y65246D01*
X101833Y65477D01*
X100851Y65638D01*
X99860Y65728D01*
X98865Y65746D01*
X97872Y65692D01*
X96885Y65566D01*
X95910Y65370D01*
X94951Y65104D01*
X94014Y64769D01*
X93103Y64368D01*
X92224Y63902D01*
X91381Y63374D01*
X90579Y62786D01*
X89820Y62142D01*
X89110Y61445D01*
X88453Y60698D01*
X87850Y59906D01*
X87307Y59073D01*
X86825Y58202D01*
X86408Y57299D01*
X86056Y56368D01*
X85773Y55415D01*
X85559Y54443D01*
X85415Y53458D01*
X85344Y52466D01*
Y51471D01*
X85415Y50479D01*
X85559Y49494D01*
X85773Y48522D01*
X86056Y47569D01*
X86408Y46638D01*
X86825Y45735D01*
X87307Y44864D01*
X87850Y44031D01*
X88453Y43239D01*
X89110Y42492D01*
X89820Y41795D01*
X90578Y41151D01*
X91381Y40563D01*
X92224Y40035D01*
X93103Y39569D01*
X94014Y39168D01*
X94951Y38833D01*
X95910Y38567D01*
X96885Y38370D01*
X97872Y38245D01*
X98865Y38191D01*
X99860Y38209D01*
X100851Y38299D01*
X101833Y38460D01*
X102801Y38691D01*
X103749Y38992D01*
X104673Y39360D01*
X105569Y39794D01*
X106430Y40292D01*
X107254Y40850D01*
X108035Y41466D01*
X108769Y42137D01*
X109454Y42860D01*
X110084Y43630D01*
X110657Y44443D01*
X111170Y45295D01*
X111620Y46183D01*
X112005Y47100D01*
X112323Y48043D01*
X112572Y49006D01*
X112750Y49985D01*
X112858Y50974D01*
X112894Y51968D01*
X112992Y129528D02*
X112956Y130522D01*
X112849Y131511D01*
X112670Y132490D01*
X112421Y133453D01*
X112103Y134396D01*
X111719Y135313D01*
X111268Y136201D01*
X110756Y137053D01*
X110182Y137867D01*
X109552Y138636D01*
X108868Y139359D01*
X108133Y140030D01*
X107352Y140646D01*
X106529Y141205D01*
X105667Y141702D01*
X104772Y142136D01*
X103848Y142504D01*
X102899Y142805D01*
X101931Y143036D01*
X100950Y143197D01*
X99959Y143287D01*
X98964Y143305D01*
X97970Y143251D01*
X96983Y143126D01*
X96008Y142929D01*
X95049Y142663D01*
X94112Y142328D01*
X93202Y141927D01*
X92323Y141461D01*
X91480Y140933D01*
X90677Y140345D01*
X89919Y139701D01*
X89209Y139004D01*
X88551Y138257D01*
X87949Y137465D01*
X87406Y136632D01*
X86924Y135761D01*
X86506Y134858D01*
X86154Y133927D01*
X85871Y132974D01*
X85657Y132002D01*
X85514Y131017D01*
X85442Y130025D01*
Y129030D01*
X85514Y128038D01*
X85657Y127053D01*
X85871Y126082D01*
X86154Y125128D01*
X86506Y124197D01*
X86924Y123294D01*
X87406Y122424D01*
X87949Y121590D01*
X88551Y120798D01*
X89209Y120051D01*
X89919Y119354D01*
X90677Y118710D01*
X91480Y118122D01*
X92323Y117594D01*
X93202Y117128D01*
X94112Y116727D01*
X95049Y116392D01*
X96008Y116126D01*
X96983Y115930D01*
X97970Y115804D01*
X98964Y115750D01*
X99959Y115768D01*
X100950Y115858D01*
X101931Y116019D01*
X102899Y116250D01*
X103847Y116551D01*
X104772Y116919D01*
X105667Y117353D01*
X106529Y117851D01*
X107352Y118409D01*
X108133Y119025D01*
X108868Y119696D01*
X109552Y120419D01*
X110182Y121188D01*
X110756Y122002D01*
X111268Y122854D01*
X111719Y123742D01*
X112103Y124659D01*
X112421Y125602D01*
X112670Y126565D01*
X112849Y127544D01*
X112956Y128533D01*
X112992Y129528D01*
X342047Y84268D02*
X342011Y85262D01*
X341904Y86251D01*
X341725Y87230D01*
X341476Y88193D01*
X341159Y89136D01*
X340774Y90054D01*
X340324Y90941D01*
X339811Y91793D01*
X339237Y92607D01*
X338607Y93376D01*
X337923Y94099D01*
X337188Y94770D01*
X336407Y95386D01*
X335584Y95945D01*
X334722Y96442D01*
X333827Y96876D01*
X332903Y97244D01*
X331954Y97545D01*
X330986Y97776D01*
X330005Y97937D01*
X329014Y98027D01*
X328019Y98045D01*
X327026Y97991D01*
X326038Y97866D01*
X325063Y97669D01*
X324104Y97403D01*
X323167Y97069D01*
X322257Y96667D01*
X321378Y96201D01*
X320535Y95673D01*
X319732Y95085D01*
X318974Y94441D01*
X318264Y93744D01*
X317606Y92997D01*
X317004Y92205D01*
X316461Y91372D01*
X315979Y90501D01*
X315561Y89598D01*
X315210Y88668D01*
X314926Y87714D01*
X314712Y86742D01*
X314569Y85758D01*
X314497Y84765D01*
Y83770D01*
X314569Y82778D01*
X314712Y81793D01*
X314926Y80822D01*
X315210Y79868D01*
X315561Y78937D01*
X315979Y78034D01*
X316461Y77164D01*
X317004Y76330D01*
X317606Y75538D01*
X318264Y74792D01*
X318974Y74094D01*
X319732Y73450D01*
X320535Y72863D01*
X321378Y72334D01*
X322257Y71868D01*
X323167Y71467D01*
X324104Y71132D01*
X325063Y70866D01*
X326038Y70670D01*
X327025Y70544D01*
X328019Y70490D01*
X329014Y70508D01*
X330005Y70598D01*
X330986Y70759D01*
X331954Y70990D01*
X332903Y71291D01*
X333827Y71659D01*
X334722Y72093D01*
X335584Y72591D01*
X336407Y73149D01*
X337188Y73765D01*
X337923Y74436D01*
X338607Y75159D01*
X339237Y75929D01*
X339811Y76742D01*
X340324Y77595D01*
X340774Y78482D01*
X341159Y79399D01*
X341476Y80342D01*
X341725Y81305D01*
X341904Y82284D01*
X342011Y83273D01*
X342047Y84268D01*
X352498Y18055D02*
X353443Y17729D01*
X354415Y17498D01*
X355405Y17362D01*
X356404Y17323D01*
X357402Y17382D01*
X358389Y17538D01*
X359356Y17790D01*
X360294Y18135D01*
X361194Y18569D01*
X362048Y19090D01*
X362846Y19691D01*
X363583Y20367D01*
X364249Y21111D01*
X364840Y21917D01*
X365350Y22777D01*
X365773Y23683D01*
X366106Y24625D01*
X366345Y25595D01*
X366489Y26585D01*
X366535Y27583D01*
X366484Y28581D01*
X366336Y29570D01*
X366092Y30539D01*
X365755Y31480D01*
X365327Y32383D01*
X364814Y33241D01*
X364219Y34044D01*
X363549Y34785D01*
X362810Y35458D01*
X362008Y36055D01*
X361153Y36572D01*
X360250Y37002D01*
X359311Y37342D01*
X358342Y37589D01*
X357354Y37741D01*
X356356Y37795D01*
X355358Y37752D01*
X354368Y37611D01*
X353397Y37375D01*
X352453Y37045D01*
X143500Y44118D02*
Y49394D01*
Y54394D02*
Y59669D01*
X188776D01*
Y44118D02*
Y59669D01*
X143500Y44118D02*
X188776D01*
X229921Y15079D02*
X250000D01*
X229921D02*
Y33504D01*
X250000Y15079D02*
Y33504D01*
X229921D02*
X250000D01*
X320854Y97701D02*
Y101701D01*
X318854Y99701D02*
X322854D01*
X314094Y65839D02*
Y69839D01*
X312094Y67839D02*
X316094D01*
X226476Y113638D02*
X255217D01*
X226476Y48283D02*
X254823D01*
X255217Y45921D02*
Y116787D01*
X263090D01*
Y45921D02*
Y116787D01*
X255217Y45921D02*
X263090D01*
X218602Y45528D02*
X226476D01*
Y116394D01*
X218602D02*
X226476D01*
X218602Y45528D02*
Y116394D01*
X99606Y109811D02*
Y113811D01*
X97606Y111811D02*
X101606D01*
X144035Y127390D02*
Y131390D01*
X142035Y129390D02*
X146035D01*
X126870Y36909D02*
Y65650D01*
X137894D01*
Y36909D02*
Y65650D01*
X126870Y36909D02*
X137894D01*
X330709Y12992D02*
Y41732D01*
X319685Y12992D02*
X330709D01*
X319685D02*
Y41732D01*
X330709D01*
X346850Y12992D02*
Y41732D01*
X335827Y12992D02*
X346850D01*
X335827D02*
Y41732D01*
X346850D01*
X47598Y23476D02*
Y46705D01*
Y23476D02*
X58622D01*
Y46705D01*
X47598D02*
X58622D01*
X37500Y83563D02*
X57972D01*
Y72933D02*
Y83563D01*
X37500Y72933D02*
X57972D01*
X37500D02*
Y83563D01*
X37894Y57874D02*
X58366D01*
X37894D02*
Y68504D01*
X58366D01*
Y57874D02*
Y68504D01*
X37500Y98917D02*
X57972D01*
Y88287D02*
Y98917D01*
X37500Y88287D02*
X57972D01*
X37500D02*
Y98917D01*
X37894Y103839D02*
X58366D01*
X37894D02*
Y114469D01*
X58366D01*
Y103839D02*
Y114469D01*
X176256Y90039D02*
Y110512D01*
X186886D01*
Y90039D02*
Y110512D01*
X176256Y90039D02*
X186886D01*
X290067Y56906D02*
X310539D01*
Y46276D02*
Y56906D01*
X290067Y46276D02*
X310539D01*
X290067D02*
Y56906D01*
X171260Y90945D02*
Y111417D01*
X160630Y90945D02*
X171260D01*
X160630D02*
Y111417D01*
X171260D01*
X12862Y40799D02*
X24673D01*
X12862Y28791D02*
Y40799D01*
Y28791D02*
X24673D01*
Y40799D01*
X12862Y131799D02*
X24673D01*
X12862Y119791D02*
Y131799D01*
Y119791D02*
X24673D01*
Y131799D01*
X360630Y100394D02*
Y112205D01*
X348622D02*
X360630D01*
X348622Y100394D02*
Y112205D01*
Y100394D02*
X360630D01*
Y128347D02*
Y140157D01*
X348622D02*
X360630D01*
X348622Y128347D02*
Y140157D01*
Y128347D02*
X360630D01*
X352453Y18099D02*
Y37045D01*
X216929Y122441D02*
X262598D01*
Y143307D01*
X216929D02*
X262598D01*
X216929Y122441D02*
Y143307D01*
X95571Y24705D02*
Y34154D01*
Y24705D02*
X106595D01*
Y34154D01*
X95571D02*
X106595D01*
X279134Y26772D02*
X288583D01*
X279134Y15748D02*
Y26772D01*
Y15748D02*
X288583D01*
Y26772D01*
X293701D02*
X303150D01*
X293701Y15748D02*
Y26772D01*
Y15748D02*
X303150D01*
Y26772D01*
X264567D02*
X274016D01*
X264567Y15748D02*
Y26772D01*
Y15748D02*
X274016D01*
Y26772D01*
X343701Y64961D02*
X353150D01*
Y75984D01*
X343701D02*
X353150D01*
X343701Y64961D02*
Y75984D01*
X357874Y75984D02*
X367323D01*
X357874Y64961D02*
Y75984D01*
Y64961D02*
X367323D01*
Y75984D01*
X191732Y29921D02*
Y54724D01*
X201181D01*
Y29921D02*
Y54724D01*
X191732Y29921D02*
X201181D01*
X191634Y72244D02*
Y97047D01*
X201083D01*
Y72244D02*
Y97047D01*
X191634Y72244D02*
X201083D01*
D25*
X152555Y29020D02*
X152011Y29768D01*
X151131Y29482D01*
Y28557D01*
X152011Y28271D01*
X152555Y29020D01*
X256299Y11811D02*
X255755Y12560D01*
X254875Y12274D01*
Y11348D01*
X255755Y11062D01*
X256299Y11811D01*
X223327Y40803D02*
X222783Y41552D01*
X221902Y41266D01*
Y40340D01*
X222783Y40054D01*
X223327Y40803D01*
X350689Y39075D02*
X350145Y39824D01*
X349265Y39538D01*
Y38612D01*
X350145Y38326D01*
X350689Y39075D01*
D26*
X334465Y114386D02*
X336170D01*
X335317D01*
Y119502D01*
X334465Y118649D01*
X342139Y114386D02*
X338728D01*
X342139Y117797D01*
Y118649D01*
X341286Y119502D01*
X339581D01*
X338728Y118649D01*
X343845Y119502D02*
Y116091D01*
X345550Y114386D01*
X347256Y116091D01*
Y119502D01*
X354078Y118649D02*
X354930Y119502D01*
X356636D01*
X357489Y118649D01*
Y115239D01*
X356636Y114386D01*
X354930D01*
X354078Y115239D01*
Y118649D01*
X359194Y114386D02*
Y115239D01*
X360047D01*
Y114386D01*
X359194D01*
X363458Y119502D02*
X366869D01*
Y118649D01*
X363458Y115239D01*
Y114386D01*
X368574D02*
Y117797D01*
X370280Y119502D01*
X371985Y117797D01*
Y114386D01*
Y116944D01*
X368574D01*
X343307Y142520D02*
Y148518D01*
X346306D01*
X347306Y147518D01*
Y145519D01*
X346306Y144519D01*
X343307D01*
X345306D02*
X347306Y142520D01*
X349305Y148518D02*
X353304D01*
X351305D01*
Y142520D01*
X355303D02*
Y148518D01*
X359302Y142520D01*
Y148518D01*
X5468Y120394D02*
Y126392D01*
X9466Y120394D01*
Y126392D01*
X5468Y35392D02*
Y29394D01*
X9466D01*
X160216Y130238D02*
Y126240D01*
X162216Y124240D01*
X164215Y126240D01*
Y130238D01*
X166215Y124240D02*
Y130238D01*
X169214D01*
X170213Y129238D01*
Y127239D01*
X169214Y126240D01*
X166215D01*
X168214D02*
X170213Y124240D01*
X172213D02*
X174212D01*
X173212D01*
Y130238D01*
X172213Y129238D01*
X351575Y48518D02*
Y43519D01*
X352574Y42520D01*
X354574D01*
X355574Y43519D01*
Y48518D01*
X357573Y47518D02*
X358573Y48518D01*
X360572D01*
X361572Y47518D01*
Y46518D01*
X360572Y45519D01*
X359572D01*
X360572D01*
X361572Y44519D01*
Y43519D01*
X360572Y42520D01*
X358573D01*
X357573Y43519D01*
X231102Y42219D02*
Y37220D01*
X232102Y36220D01*
X234101D01*
X235101Y37220D01*
Y42219D01*
X241099Y36220D02*
X237100D01*
X241099Y40219D01*
Y41219D01*
X240099Y42219D01*
X238100D01*
X237100Y41219D01*
X144968Y80192D02*
Y75193D01*
X145967Y74194D01*
X147967D01*
X148966Y75193D01*
Y80192D01*
X150966Y74194D02*
X152965D01*
X151965D01*
Y80192D01*
X150966Y79192D01*
X204331Y126077D02*
X208329D01*
X206330D01*
Y120079D01*
X210329D02*
X212328D01*
X211329D01*
Y126077D01*
X210329Y125077D01*
X29768Y45894D02*
Y51892D01*
X32767D01*
X33766Y50892D01*
Y48893D01*
X32767Y47893D01*
X29768D01*
X31767D02*
X33766Y45894D01*
X39764Y51892D02*
X35766D01*
Y48893D01*
X37765D01*
X35766D01*
Y45894D01*
X41764D02*
X43763D01*
X42764D01*
Y51892D01*
X41764Y50892D01*
X358661Y86614D02*
Y92612D01*
X361660D01*
X362660Y91612D01*
Y89613D01*
X361660Y88613D01*
X358661D01*
X360661D02*
X362660Y86614D01*
X364660Y91612D02*
X365659Y92612D01*
X367658D01*
X368658Y91612D01*
Y90613D01*
X367658Y89613D01*
X368658Y88613D01*
Y87614D01*
X367658Y86614D01*
X365659D01*
X364660Y87614D01*
Y88613D01*
X365659Y89613D01*
X364660Y90613D01*
Y91612D01*
X365659Y89613D02*
X367658D01*
X344882Y85827D02*
Y91825D01*
X347881D01*
X348881Y90825D01*
Y88826D01*
X347881Y87826D01*
X344882D01*
X346881D02*
X348881Y85827D01*
X350880Y91825D02*
X354879D01*
Y90825D01*
X350880Y86826D01*
Y85827D01*
X264567Y37008D02*
Y43006D01*
X267566D01*
X268566Y42006D01*
Y40007D01*
X267566Y39007D01*
X264567D01*
X266566D02*
X268566Y37008D01*
X274564Y43006D02*
X272564Y42006D01*
X270565Y40007D01*
Y38008D01*
X271565Y37008D01*
X273564D01*
X274564Y38008D01*
Y39007D01*
X273564Y40007D01*
X270565D01*
X293701Y37402D02*
Y43400D01*
X296700D01*
X297699Y42400D01*
Y40401D01*
X296700Y39401D01*
X293701D01*
X295700D02*
X297699Y37402D01*
X303698Y43400D02*
X299699D01*
Y40401D01*
X301698Y41400D01*
X302698D01*
X303698Y40401D01*
Y38401D01*
X302698Y37402D01*
X300698D01*
X299699Y38401D01*
X279558Y37040D02*
Y43038D01*
X282557D01*
X283557Y42039D01*
Y40039D01*
X282557Y39039D01*
X279558D01*
X281558D02*
X283557Y37040D01*
X288555D02*
Y43038D01*
X285556Y40039D01*
X289555D01*
X191126Y106736D02*
Y112734D01*
X194125D01*
X195125Y111735D01*
Y109735D01*
X194125Y108736D01*
X191126D01*
X193125D02*
X195125Y106736D01*
X197124Y111735D02*
X198124Y112734D01*
X200123D01*
X201123Y111735D01*
Y110735D01*
X200123Y109735D01*
X199123D01*
X200123D01*
X201123Y108736D01*
Y107736D01*
X200123Y106736D01*
X198124D01*
X197124Y107736D01*
X203543Y34252D02*
Y40250D01*
X206542D01*
X207542Y39250D01*
Y37251D01*
X206542Y36251D01*
X203543D01*
X205543D02*
X207542Y34252D01*
X213540D02*
X209541D01*
X213540Y38251D01*
Y39250D01*
X212540Y40250D01*
X210541D01*
X209541Y39250D01*
X77425Y26929D02*
Y32927D01*
X80424D01*
X81424Y31927D01*
Y29928D01*
X80424Y28929D01*
X77425D01*
X79425D02*
X81424Y26929D01*
X83423D02*
X85423D01*
X84423D01*
Y32927D01*
X83423Y31927D01*
X325590Y67809D02*
Y61811D01*
X329589D01*
X331589Y66809D02*
X332588Y67809D01*
X334588D01*
X335587Y66809D01*
Y65810D01*
X334588Y64810D01*
X333588D01*
X334588D01*
X335587Y63810D01*
Y62811D01*
X334588Y61811D01*
X332588D01*
X331589Y62811D01*
X73339Y140026D02*
Y134028D01*
X77337D01*
X83335D02*
X79337D01*
X83335Y138026D01*
Y139026D01*
X82336Y140026D01*
X80336D01*
X79337Y139026D01*
X75988Y56467D02*
Y50468D01*
X79987D01*
X81986D02*
X83986D01*
X82986D01*
Y56467D01*
X81986Y55467D01*
X278346Y63085D02*
Y57087D01*
X281346D01*
X282345Y58086D01*
Y62085D01*
X281346Y63085D01*
X278346D01*
X288343D02*
X286344Y62085D01*
X284345Y60086D01*
Y58086D01*
X285344Y57087D01*
X287344D01*
X288343Y58086D01*
Y59086D01*
X287344Y60086D01*
X284345D01*
X177953Y128833D02*
Y122835D01*
X180952D01*
X181951Y123834D01*
Y127833D01*
X180952Y128833D01*
X177953D01*
X187950D02*
X183951D01*
Y125834D01*
X185950Y126833D01*
X186950D01*
X187950Y125834D01*
Y123834D01*
X186950Y122835D01*
X184950D01*
X183951Y123834D01*
X14701Y111848D02*
Y105850D01*
X17700D01*
X18699Y106850D01*
Y110849D01*
X17700Y111848D01*
X14701D01*
X23698Y105850D02*
Y111848D01*
X20699Y108849D01*
X24698D01*
X14701Y97404D02*
Y91405D01*
X17700D01*
X18699Y92405D01*
Y96404D01*
X17700Y97404D01*
X14701D01*
X20699Y96404D02*
X21699Y97404D01*
X23698D01*
X24698Y96404D01*
Y95404D01*
X23698Y94405D01*
X22698D01*
X23698D01*
X24698Y93405D01*
Y92405D01*
X23698Y91405D01*
X21699D01*
X20699Y92405D01*
X13701Y66384D02*
Y60386D01*
X16700D01*
X17699Y61386D01*
Y65384D01*
X16700Y66384D01*
X13701D01*
X23698Y60386D02*
X19699D01*
X23698Y64385D01*
Y65384D01*
X22698Y66384D01*
X20698D01*
X19699Y65384D01*
X14201Y81396D02*
Y75398D01*
X17200D01*
X18200Y76397D01*
Y80396D01*
X17200Y81396D01*
X14201D01*
X20199Y75398D02*
X22198D01*
X21199D01*
Y81396D01*
X20199Y80396D01*
X340219Y48699D02*
X339219Y49699D01*
X337220D01*
X336221Y48699D01*
Y44701D01*
X337220Y43701D01*
X339219D01*
X340219Y44701D01*
X342218Y48699D02*
X343218Y49699D01*
X345218D01*
X346217Y48699D01*
Y47699D01*
X345218Y46700D01*
X346217Y45700D01*
Y44701D01*
X345218Y43701D01*
X343218D01*
X342218Y44701D01*
Y45700D01*
X343218Y46700D01*
X342218Y47699D01*
Y48699D01*
X343218Y46700D02*
X345218D01*
X304566Y124592D02*
X303567Y125592D01*
X301567D01*
X300568Y124592D01*
Y120593D01*
X301567Y119594D01*
X303567D01*
X304566Y120593D01*
X306566Y125592D02*
X310564D01*
Y124592D01*
X306566Y120593D01*
Y119594D01*
X286466Y100992D02*
X285467Y101992D01*
X283467D01*
X282468Y100992D01*
Y96993D01*
X283467Y95994D01*
X285467D01*
X286466Y96993D01*
X292464Y101992D02*
X290465Y100992D01*
X288466Y98993D01*
Y96993D01*
X289465Y95994D01*
X291465D01*
X292464Y96993D01*
Y97993D01*
X291465Y98993D01*
X288466D01*
X311479Y40038D02*
X310479Y41037D01*
X308480D01*
X307480Y40038D01*
Y36039D01*
X308480Y35039D01*
X310479D01*
X311479Y36039D01*
X317477Y41037D02*
X313478D01*
Y38038D01*
X315478Y39038D01*
X316477D01*
X317477Y38038D01*
Y36039D01*
X316477Y35039D01*
X314478D01*
X313478Y36039D01*
X207148Y141613D02*
X206149Y142612D01*
X204149D01*
X203150Y141613D01*
Y137614D01*
X204149Y136614D01*
X206149D01*
X207148Y137614D01*
X212147Y136614D02*
Y142612D01*
X209148Y139613D01*
X213146D01*
X131881Y74781D02*
X130881Y75781D01*
X128882D01*
X127882Y74781D01*
Y70782D01*
X128882Y69783D01*
X130881D01*
X131881Y70782D01*
X133880Y74781D02*
X134880Y75781D01*
X136879D01*
X137879Y74781D01*
Y73781D01*
X136879Y72782D01*
X135879D01*
X136879D01*
X137879Y71782D01*
Y70782D01*
X136879Y69783D01*
X134880D01*
X133880Y70782D01*
X125766Y134892D02*
X124767Y135892D01*
X122767D01*
X121768Y134892D01*
Y130893D01*
X122767Y129894D01*
X124767D01*
X125766Y130893D01*
X131764Y129894D02*
X127766D01*
X131764Y133892D01*
Y134892D01*
X130765Y135892D01*
X128765D01*
X127766Y134892D01*
X75837Y115313D02*
X74838Y116313D01*
X72838D01*
X71839Y115313D01*
Y111315D01*
X72838Y110315D01*
X74838D01*
X75837Y111315D01*
X77837Y110315D02*
X79836D01*
X78836D01*
Y116313D01*
X77837Y115313D01*
D27*
X56004Y78248D02*
D03*
X39862Y63189D02*
D03*
X56004Y93602D02*
D03*
X39862Y109153D02*
D03*
X308571Y51591D02*
D03*
D28*
X181571Y108543D02*
D03*
X165945Y92913D02*
D03*
M02*
