G04 Layer_Physical_Order=2*
G04 Layer_Color=16711680*
%FSLAX25Y25*%
%MOIN*%
G70*
G01*
G75*
%ADD10R,0.04724X0.06693*%
%ADD11O,0.04724X0.06693*%
%ADD12O,0.06693X0.04724*%
%ADD13R,0.06693X0.04724*%
%ADD14C,0.05512*%
%ADD15C,0.06299*%
%ADD16C,0.07874*%
%ADD17R,0.07874X0.07874*%
%ADD18C,0.14961*%
%ADD19R,0.06299X0.06299*%
%ADD20C,0.02756*%
%ADD21C,0.03937*%
%ADD22C,0.05905*%
%ADD23C,0.04724*%
G36*
X296063Y43701D02*
X263386Y43701D01*
X263386Y56299D01*
X296063Y56299D01*
X296063Y43701D01*
D02*
G37*
G36*
X332677Y54724D02*
X321654Y43701D01*
X300787Y43701D01*
X300787Y79527D01*
X303150Y81890D01*
X332677Y81890D01*
X332677Y54724D01*
D02*
G37*
G36*
X154331Y80709D02*
X164567Y70472D01*
X164567Y62992D01*
X174409Y53150D01*
X174409Y33071D01*
X159055D01*
Y33465D01*
X159055Y36576D01*
X159086Y36894D01*
X159055Y37212D01*
X159055Y44488D01*
X159051Y44492D01*
Y45161D01*
X158382D01*
X147638Y55905D01*
X129921Y55905D01*
X127362Y58465D01*
Y105118D01*
X154331D01*
Y80709D01*
D02*
G37*
G36*
X360236Y139764D02*
Y128347D01*
X325984Y128347D01*
X309055Y111417D01*
Y100394D01*
X296063Y87402D01*
X296063Y61811D01*
X263400D01*
X263022Y72378D01*
X263843Y73228D01*
X275984D01*
X278740Y75984D01*
X278740Y90551D01*
X300697Y112508D01*
D01*
X327953Y139764D01*
X360236Y139764D01*
D02*
G37*
G36*
Y100394D02*
X346457Y100394D01*
X332677Y86614D01*
X324016Y86614D01*
X310630Y100000D01*
X310630Y110630D01*
X360236D01*
Y100394D01*
D02*
G37*
G36*
X216929Y75984D02*
X196755D01*
X196358Y76023D01*
X195962Y75984D01*
X187402D01*
X187402Y61417D01*
X175984Y61417D01*
X175984Y87402D01*
X216929Y87402D01*
Y75984D01*
D02*
G37*
D10*
X151768Y36894D02*
D03*
D11*
X161768D02*
D03*
X171768D02*
D03*
X181768D02*
D03*
X151768Y66894D02*
D03*
X161768D02*
D03*
X181768D02*
D03*
D12*
X225118Y28898D02*
D03*
Y18898D02*
D03*
X255118Y28898D02*
D03*
D13*
Y18898D02*
D03*
D14*
X305894Y106394D02*
D03*
X313768D02*
D03*
D15*
X290768Y76894D02*
D03*
X304547D02*
D03*
X91339Y100000D02*
D03*
Y80315D02*
D03*
X135768Y117579D02*
D03*
Y97894D02*
D03*
X132382Y41240D02*
D03*
Y60925D02*
D03*
X325197Y37402D02*
D03*
Y17717D02*
D03*
X341339Y37402D02*
D03*
Y17717D02*
D03*
X106988Y51968D02*
D03*
X91240D02*
D03*
X107087Y129528D02*
D03*
X91339D02*
D03*
X62953Y34894D02*
D03*
X43268D02*
D03*
X64665Y78051D02*
D03*
X31201D02*
D03*
Y63386D02*
D03*
X64665D02*
D03*
Y93405D02*
D03*
X31201D02*
D03*
Y109350D02*
D03*
X64665D02*
D03*
X181768Y117205D02*
D03*
Y83740D02*
D03*
X317232Y51394D02*
D03*
X283768D02*
D03*
X165748Y84252D02*
D03*
Y117717D02*
D03*
X328268Y92142D02*
D03*
Y76394D02*
D03*
X18768Y34894D02*
D03*
Y125894D02*
D03*
X354724Y106299D02*
D03*
Y134252D02*
D03*
X356299Y16535D02*
D03*
Y27559D02*
D03*
X220866Y126378D02*
D03*
X258268Y138976D02*
D03*
X110925Y29429D02*
D03*
X91240D02*
D03*
X283858Y11417D02*
D03*
Y31102D02*
D03*
X298425Y11417D02*
D03*
Y31102D02*
D03*
X269291Y11417D02*
D03*
Y31102D02*
D03*
X348425Y80315D02*
D03*
Y60630D02*
D03*
X362598D02*
D03*
Y80315D02*
D03*
X196457Y25591D02*
D03*
Y59055D02*
D03*
X196358Y67913D02*
D03*
Y101378D02*
D03*
D16*
X210728Y111276D02*
D03*
Y96315D02*
D03*
Y81354D02*
D03*
Y66394D02*
D03*
X270768Y111276D02*
D03*
Y96315D02*
D03*
Y81354D02*
D03*
Y66394D02*
D03*
Y51433D02*
D03*
D17*
X210728D02*
D03*
D18*
X46457Y11417D02*
D03*
X48425Y134646D02*
D03*
X167323Y11417D02*
D03*
X287795Y134646D02*
D03*
D19*
X356299Y38583D02*
D03*
D20*
X255118Y28898D02*
X260787D01*
X254331D02*
X255118D01*
Y18898D02*
X258661D01*
X254331D02*
X255118D01*
X354724Y134252D02*
X364173Y124803D01*
Y81890D02*
Y124803D01*
X362598Y80315D02*
X364173Y81890D01*
X355118Y39764D02*
X356299Y38583D01*
X343701Y39764D02*
X355118D01*
X341339Y37402D02*
X343701Y39764D01*
X354331Y14567D02*
X356299Y16535D01*
X344488Y14567D02*
X354331D01*
X341339Y17717D02*
X344488Y14567D01*
X370079Y37008D02*
Y74410D01*
X360630Y27559D02*
X370079Y37008D01*
X356299Y27559D02*
X360630D01*
X337795Y17717D02*
X341339D01*
X331102Y24409D02*
X337795Y17717D01*
X279134Y24409D02*
X331102D01*
X321260Y17717D02*
X325197D01*
X308268Y4724D02*
X321260Y17717D01*
X288583Y4724D02*
X308268D01*
X322047Y34252D02*
X325197Y37402D01*
X301575Y34252D02*
X322047D01*
X298425Y31102D02*
X301575Y34252D01*
X272441Y31102D02*
X279134Y24409D01*
X269291Y31102D02*
X272441D01*
X278740Y18110D02*
X288583D01*
X272047Y11417D02*
X278740Y18110D01*
X269291Y11417D02*
X272047D01*
X295276D02*
X298425D01*
X288583Y18110D02*
X295276Y11417D01*
X340945Y80315D02*
X348425D01*
X329118Y92142D02*
X340945Y80315D01*
X328268Y92142D02*
X329118D01*
X270768Y51433D02*
X283858Y38342D01*
Y31102D02*
Y38342D01*
X262992Y31102D02*
X269291D01*
X260787Y28898D02*
X262992Y31102D01*
X266142Y11417D02*
X269291D01*
X258661Y18898D02*
X266142Y11417D01*
X283858Y9449D02*
X288583Y4724D01*
X325197Y37402D02*
Y43429D01*
X317232Y51394D02*
X325197Y43429D01*
X364173Y80315D02*
X370079Y74410D01*
X362598Y80315D02*
X364173D01*
X356299Y38583D02*
X362598Y44882D01*
Y60630D01*
X348425D02*
X362598D01*
D21*
X200787Y39370D02*
X211024D01*
X188976Y51181D02*
X200787Y39370D01*
X172441Y51181D02*
X188976D01*
X221496Y28898D02*
X224331D01*
X211024Y39370D02*
X221496Y28898D01*
X196457Y25591D02*
X201181D01*
X207874Y18898D01*
X224331D01*
X188976Y25591D02*
X196457D01*
X181768Y32799D02*
X188976Y25591D01*
X181768Y32799D02*
Y36894D01*
X196457Y59055D02*
Y67815D01*
D22*
X129272Y117579D02*
X135768D01*
X117457Y129394D02*
X129272Y117579D01*
X86221Y80315D02*
X91339D01*
X69291Y63386D02*
X86221Y80315D01*
X64665Y63386D02*
X69291D01*
X196358Y120374D02*
Y122933D01*
X189370Y129921D02*
X196358Y122933D01*
X173228Y129921D02*
X189370D01*
X196358Y101378D02*
Y120374D01*
X203937Y127953D02*
X219291D01*
X196358Y120374D02*
X203937Y127953D01*
X219291D02*
X220866Y126378D01*
X165768Y122461D02*
X173228Y129921D01*
X94095Y80315D02*
X96850Y77559D01*
Y57579D02*
Y77559D01*
X91240Y51968D02*
X96850Y57579D01*
X91339Y80315D02*
X94095D01*
X91339Y100000D02*
Y129075D01*
X87795Y96457D02*
X91339Y100000D01*
X67716Y96457D02*
X87795D01*
X64665Y93405D02*
X67716Y96457D01*
X107087Y33268D02*
X110925Y29429D01*
X106988Y51968D02*
X107087D01*
X116240Y61122D01*
X181768Y107358D02*
Y117205D01*
X165768Y91358D02*
X181768Y107358D01*
X210728Y51433D02*
X217181D01*
X18768Y34894D02*
X43268D01*
X62953D02*
Y40000D01*
X40256Y48031D02*
X54921D01*
X62953Y40000D01*
X55555Y109394D02*
X64232D01*
X48425Y102264D02*
X55555Y109394D01*
X48425Y73032D02*
Y102264D01*
Y73032D02*
X58063Y63394D01*
X31201Y57087D02*
X40256Y48031D01*
X31201Y57087D02*
Y63386D01*
Y78051D01*
Y93405D02*
Y109350D01*
Y119095D01*
X24402Y125894D02*
X31201Y119095D01*
X18768Y125894D02*
X24402D01*
X64665Y78051D02*
Y93405D01*
X91240Y29429D02*
Y51968D01*
X258268Y138976D02*
X260236Y137008D01*
Y72835D02*
Y137008D01*
Y72835D02*
X266677Y66394D01*
X270768D01*
X217181Y51433D02*
X225197Y59449D01*
Y122047D01*
X220866Y126378D02*
X225197Y122047D01*
X165768Y84252D02*
Y91358D01*
X91020Y129394D02*
X91339Y129075D01*
X58063Y63394D02*
X64732D01*
X135768Y117579D02*
X165768D01*
Y122461D01*
X106768Y129394D02*
X117457D01*
X107087Y33268D02*
Y51968D01*
X116240Y61122D02*
X132382D01*
D23*
X196358Y67913D02*
X196457Y67815D01*
X132382Y41240D02*
X136728Y36894D01*
X151768D01*
M02*
