M48
;Layer_Color=9474304
;FILE_FORMAT=2:5
INCH,TZ
;TYPE=PLATED
T1F00S00C0.03937
T2F00S00C0.04724
T3F00S00C0.05512
T4F00S00C0.13780
%
T01
X269291Y11417
X283858
X298425
X43268Y34894
X31201Y63386
Y78051
Y93405
Y109350
X64665
Y93405
Y78051
Y63386
X62953Y34894
X91240Y29429
X110925
X106988Y51968
X91240
X91339Y80315
Y100000
Y129528
X107087
X135768Y117579
Y97894
X132382Y60925
Y41240
X151768Y36894
X161768
X171768
X181768
X196457Y25591
Y59055
X196358Y67913
X181768Y66894
Y83740
X165748Y84252
X161768Y66894
X151768
X165748Y117717
X181768Y117205
X196358Y101378
X220866Y126378
X258268Y138976
X305894Y106394
X313768
X328268Y92142
Y76394
X348425Y80315
Y60630
X356299Y38583
Y27559
Y16535
X341339Y17717
X325197
Y37402
X341339
X317232Y51394
X283768
X283858Y31102
X298425
X269291
X255118Y28898
Y18898
X225118
Y28898
X290768Y76894
X304547
X362598Y80315
Y60630
T02
X18768Y34894
Y125894
X354724Y134252
Y106299
T03
X210728Y51433
Y66394
Y81354
Y96315
Y111276
X270768
Y96315
Y81354
Y66394
Y51433
T04
X46457Y11417
X167323
X48425Y134646
X287795
M30
